# Tdarr Troubleshooting Report
## Summary
Library: streams=14 dur=2855.316s br=2562196 video=hevc/yuv420p 1920x1080 @24000/1001 audio=eac3 6ch
Cache:   streams=2 dur=2855.393s br=2265662 video=hevc/yuv420p 1920x1080 @24000/1001 audio=eac3 6ch
## Diffs
- streams delta: -12
- duration delta: 0.077 s
- bitrate delta: -296534
- size delta: -105815349
- video start shift: 78 ms
- audio start shift: 78 ms
- subtitles removed: 12
## Failure classification
- kind: io-path
- note: Path/filename translation issue.
## Evidence (top log snippets)
### Hit 1 @ line ~35
```
2025-08-23T01:04:10.657Z 08y9yCN47:[Step S01] [2.45.01] Server relay initialising job
2025-08-23T01:04:10.659Z 08y9yCN47:Server: linux_x64_docker_true
2025-08-23T01:04:10.660Z 08y9yCN47:Server relay adding file to staged files
2025-08-23T01:04:10.662Z 08y9yCN47:Server relay sending job to Node relay: wrz-desk
2025-08-23T01:04:11.664Z 08y9yCN47:Node[wrz-desk]:Worker[young-yak]:Scan complete
2025-08-23T01:04:11.666Z 08y9yCN47:Node[wrz-desk]:Worker[young-yak]:Original file scanned
2025-08-23T01:04:11.669Z 08y9yCN47:Node[wrz-desk]:Worker[young-yak]:fileVersionOriginalLogJSONString:{"lastCliCommand":"","lastPluginId":"","sourceFile":{"_id":"V:/tv/Vikings/Season 2/Vikings.S02E06.Unforgiven.EAC3.5.1.1080p.Bluray.x265-iVy.mkv","DB":"5vqJ1Pb22","footprintId":"Dn96pX69u","file":"V:/tv/Vikings/Season 2/Vikings.S02E06.Unforgiven.EAC3.5.1.1080p.Bluray.x265-iVy.mkv","fileNameWithoutExtension":"Vikings.S02E06.Unforgiven.EAC3.5.1.1080p.Bluray.x265-iVy","container":"mkv","scannerReads":{"ffProbeRead":"success","exiftoolRead":"success","mediaInfoRead":"success","closedCaptionRead":"not enabled"},"createdAt":1755936245550,"lastPluginDetails":"none","bit_rate":2562196,"statSync":{"dev":3145496900,"mode":33206,"nlink":1,"uid":0,"gid":0,"rdev":0,"blksize":4096,"ino":51144256,"size":914484977,"blocks":1786112,"atimeMs":1755921221515.7014,"mtimeMs":1704842497000,"ctimeMs":1704842497000,"birthtimeMs":1755828913402.7268,"atime":"2025-08-23T03:53:41.516Z","mtime":"2024-01-09T23:21:37.000Z","ctime":"2024-01-09T23:21:37.000Z","birthtime":"2025-08-22T02:15:13.403Z"},"file_size":872.1208353042603,"ffProbeData":{"streams":[{"index":0,"codec_name":"hevc","codec_long_name":"H.265 / HEVC (High Efficiency Video Coding)","profile":"Main","codec_type":"video","codec_tag_string":"[0][0][0][0]","codec_tag":"0x0000","width":1920,"height":1080,"coded_width":1920,"coded_height":1080,"closed_captions":0,"film_grain":0,"has_b_frames":2,"sample_aspect_ratio":"1:1","display_aspect_ratio":"16:9","pix_fmt":"yuv420p","level":120,"color_range":"tv","color_space":"bt709","color_transfer":"bt709","color_primaries":"bt709","chroma_location":"left","refs":1,"view_ids_available":"","view_pos_available":"","r_frame_rate":"24000/1001","avg_frame_rate":"24000/1001","time_base":"1/1000","start_pts":5,"start_time":"0.005000","extradata_size":2483,"disposition":{"default":1,"dub":0,"original":0,"comment":0,"lyrics":0,"karaoke":0,"forced":0,"hearing_impaired":0,"visual_impaired":0,"clean_effects":0,"attached_pic":0,"timed_thumbnails":0,"non_diegetic":0,"captions":0,"descriptions":0,"metadata":0,"dependent":0,"still_image":0,"multilayer":0},"tags":{"DURATION":"00:47:35.316000000"}},{"index":1,"codec_name":"eac3","codec_long_name":"ATSC A/52B (AC-3, E-AC-3)","codec_type":"audio","codec_tag_string":"[0][0][0][0]","codec_tag":"0x0000","sample_fmt":"fltp","sample_rate":"48000","channels":6,"channel_layout":"5.1(side)","bits_per_sample":0,"initial_padding":0,"r_frame_rate":"0/0","avg_frame_rate":"0/0","time_base":"1/1000","start_pts":0,"start_time":"0.000000","bit_rate":"640000","disposition":{"default":1,"dub":0,"original":0,"comment":0,"lyrics":0,"karaoke":0,"forced":0,"hearing_impaired":0,"visual_impaired":0,"clean_effects":0,"attached_pic":0,"timed_thumbnails":0,"non_diegetic":0,"captions":0,"descriptions":0,"metadata":0,"dependent":0,"still_image":0,"multilayer":0},"tags":{"language":"eng","DURATION":"00:47:35.296000000"}},{"index":2,"codec_name":"hdmv_pgs_subtitle","codec_long_name":"HDMV Presentation Graphic Stream subtitles","codec_type":"subtitle","codec_tag_string":"[0][0][0][0]","codec_tag":"0x0000","r_frame_rate":"0/0","avg_frame_rate":"0/0","time_base":"1/1000","start_pts":0,"start_time":"0.000000","duration_ts":2855316,"duration":"2855.316000","disposition":{"default":0,"dub":0,"original":0,"comment":0,"lyrics":0,"karaoke":0,"forced":0,"hearing_impaired":0,"visual_impaired":0,"clean_effects":0,"attached_pic":0,"timed_thumbnails":0,"non_diegetic":0,"captions":0,"descriptions":0,"metadata":0,"dependent":0,"still_image":0,"multilayer":0},"tags":{"language":"dan","DURATION":"00:47:31.771000000"}},{"index":3,"codec_name":"hdmv_pgs_subtitle","codec_long_name":"HDMV Presentation Graphic Stream subtitles","codec_type":"subtitle","codec_tag_string":"[0][0][0][0]","codec_tag":"0x0000","r_frame_rate":"0/0","avg_frame_rate":"0/0","time_base":"1/1000","start_pts":0,"start_time":"0.000000","duration_ts":2855316,"duration":"2855.316000","disposition":{"default":0,"dub":0,"original":0,"comment":0,"lyrics":0,"karaoke":0,"forced":0,"hearing_impaired":0,"visual_impaired":0,"clean_effects":0,"attached_pic":0,"timed_thumbnails":0,"non_diegetic":0,"captions":0,"descriptions":0,"metadata":0,"dependent":0,"still_image":0,"multilayer":0},"tags":{"language":"dut","DURATION":"00:47:31.771000000"}},{"index":4,"codec_name":"hdmv_pgs_subtitle","codec_long_name":"HDMV Presentation Graphic Stream subtitles","codec_type":"subtitle","codec_tag_string":"[0][0][0][0]","codec_tag":"0x0000","width":1920,"height":1080,"r_frame_rate":"0/0","avg_frame_rate":"0/0","time_base":"1/1000","start_pts":1173,"start_time":"1.173000","disposition":{"default":0,"dub":0,"original":0,"comment":0,"lyrics":0,"karaoke":0,"forced":0,"hearing_impaired":0,"visual_impaired":0,"clean_effects":0,"attached_pic":0,"timed_thumbnails":0,"non_diegetic":0,"captions":0,"descriptions":0,"metadata":0,"dependent":0,"still_image":0,"multilayer":0},"tags":{"language":"eng","title":"SDH","DURATION":"00:46:35.256000000"}},{"index":5,"codec_name":"hdmv_pgs_subtitle","codec_long_name":"HDMV Presentation Graphic Stream subtitles","codec_type":"subtitle","codec_tag_string":"[0][0][0][0]","codec_tag":"0x0000","r_frame_rate":"0/0","avg_frame_rate":"0/0","time_base":"1/1000","start_pts":0,"start_time":"0.000000","duration_ts":2855316,"duration":"2855.316000","disposition":{"default":0,"dub":0,"original":0,"comment":0,"lyrics":0,"karaoke":0,"forced":0,"hearing_impaired":0,"visual_impaired":0,"clean_effects":0,"attached_pic":0,"timed_thumbnails":0,"non_diegetic":0,"captions":0,"descriptions":0,"metadata":0,"dependent":0,"still_image":0,"multilayer":0},"tags":{"language":"fin","DURATION":"00:47:31.771000000"}},{"index":6,"codec_name":"hdmv_pgs_subtitle","codec_long_name":"HDMV Presentation Graphic Stream subtitles","codec_type":"subtitle","codec_tag_string":"[0][0][0][0]","codec_tag":"0x0000","r_frame_rate":"0/0","avg_frame_rate":"0/0","time_base":"1/1000","start_pts":0,"start_time":"0.000000","duration_ts":2855316,"duration":"2855.316000","disposition":{"default":0,"dub":0,"original":0,"comment":0,"lyrics":0,"karaoke":0,"forced":0,"hearing_impaired":0,"visual_impaired":0,"clean_effects":0,"attached_pic":0,"timed_thumbnails":0,"non_diegetic":0,"captions":0,"descriptions":0,"metadata":0,"dependent":0,"still_image":0,"multilayer":0},"tags":{"language":"fre","DURATION":"00:47:31.771000000"}},{"index":7,"codec_name":"hdmv_pgs_subtitle","codec_long_name":"HDMV Presentation Graphic Stream subtitles","codec_type":"subtitle","codec_tag_string":"[0][0][0][0]","codec_tag":"0x0000","r_frame_rate":"0/0","avg_frame_rate":"0/0","time_base":"1/1000","start_pts":0,"start_time":"0.000000","duration_ts":2855316,"duration":"2855.316000","disposition":{"default":0,"dub":0,"original":0,"comment":0,"lyrics":0,"karaoke":0,"forced":0,"hearing_impaired":0,"visual_impaired":0,"clean_effects":0,"attached_pic":0,"timed_thumbnails":0,"non_diegetic":0,"captions":0,"descriptions":0,"metadata":0,"dependent":0,"still_image":0,"multilayer":0},"tags":{"language":"fre","DURATION":"00:47:31.771000000"}},{"index":8,"codec_name":"hdmv_pgs_subtitle","codec_long_name":"HDMV Presentation Graphic Stream subtitles","codec_type":"subtitle","codec_tag_string":"[0][0][0][0]","codec_tag":"0x0000","r_frame_rate":"0/0","avg_frame_rate":"0/0","time_base":"1/1000","start_pts":0,"start_time":"0.000000","duration_ts":2855316,"duration":"2855.316000","disposition":{"default":0,"dub":0,"original":0,"comment":0,"lyrics":0,"karaoke":0,"forced":0,"hearing_impaired":0,"visual_impaired":0,"clean_effects":0,"attached_pic":0,"timed_thumbnails":0,"non_diegetic":0,"captions":0,"descriptions":0,"metadata":0,"dependent":0,"still_image":0,"multilayer":0},"tags":{"language":"ice","DURATION":"00:47:31.771000000"}},{"index":9,"codec_name":"hdmv_pgs_subtitle","codec_long_name":"HDMV Presentation Graphic Stream subtitles","codec_type":"subtitle","codec_tag_string":"[0][0][0][0]","codec_tag":"0x0000","r_frame_rate":"0/0","avg_frame_rate":"0/0","time_base":"1/1000","start_pts":0,"start_time":"0.000000","duration_ts":2855316,"duration":"2855.316000","disposition":{"default":0,"dub":0,"original":0,"comment":0,"lyrics":0,"karaoke":0,"forced":0,"hearing_impaired":0,"visual_impaired":0,"clean_effects":0,"attached_pic":0,"timed_thumbnails":0,"non_diegetic":0,"captions":0,"descriptions":0,"metadata":0,"dependent":0,"still_image":0,"multilayer":0},"tags":{"language":"nor","DURATION":"00:47:31.771000000"}},{"index":10,"codec_name":"hdmv_pgs_subtitle","codec_long_name":"HDMV Presentation Graphic Stream subtitles","codec_type":"subtitle","codec_tag_string":"[0][0][0][0]","codec_tag":"0x0000","r_frame_rate":"0/0","avg_frame_rate":"0/0","time_base":"1/1000","start_pts":0,"start_time":"0.000000","duration_ts":2855316,"duration":"2855.316000","disposition":{"default":0,"dub":0,"original":0,"comment":0,"lyrics":0,"karaoke":0,"forced":0,"hearing_impaired":0,"visual_impaired":0,"clean_effects":0,"attached_pic":0,"timed_thumbnails":0,"non_diegetic":0,"captions":0,"descriptions":0,"metadata":0,"dependent":0,"still_image":0,"multilayer":0},"tags":{"language":"por","DURATION":"00:47:31.771000000"}},{"index":11,"codec_name":"hdmv_pgs_subtitle","codec_long_name":"HDMV Presentation Graphic Stream subtitles","codec_type":"subtitle","codec_tag_string":"[0][0][0][0]","codec_tag":"0x0000","r_frame_rate":"0/0","avg_frame_rate":"0/0","time_base":"1/1000","start_pts":0,"start_time":"0.000000","duration_ts":2855316,"duration":"2855.316000","disposition":{"default":0,"dub":0,"original":0,"comment":0,"lyrics":0,"karaoke":0,"forced":0,"hearing_impaired":0,"visual_impaired":0,"clean_effects":0,"attached_pic":0,"timed_thumbnails":0,"non_diegetic":0,"captions":0,"descriptions":0,"metadata":0,"dependent":0,"still_image":0,"multilayer":0},"tags":{"language":"spa","DURATION":"00:47:31.771000000"}},{"index":12,"codec_name":"hdmv_pgs_subtitle","codec_long_name":"HDMV Presentation Graphic Stream subtitles","codec_type":"subtitle","codec_tag_string":"[0][0][0][0]","codec_tag":"0x0000","r_frame_rate":"0/0","avg_frame_rate":"0/0","time_base":"1/1000","start_pts":0,"start_time":"0.000000","duration_ts":2855316,"duration":"2855.316000","disposition":{"default":0,"dub":0,"original":0,"comment":0,"lyrics":0,"karaoke":0,"forced":0,"hearing_impaired":0,"visual_impaired":0,"clean_effects":0,"attached_pic":0,"timed_thumbnails":0,"non_diegetic":0,"captions":0,"descriptions":0,"metadata":0,"dependent":0,"still_image":0,"multilayer":0},"tags":{"language":"spa","DURATION":"00:47:31.771000000"}},{"index":13,"codec_name":"hdmv_pgs_subtitle","codec_long_name":"HDMV Presentation Graphic Stream subtitles","codec_type":"subtitle","codec_tag_string":"[0][0][0][0]","codec_tag":"0x0000","r_frame_rate":"0/0","avg_frame_rate":"0/0","time_base":"1/1000","start_pts":0,"start_time":"0.000000","duration_ts":2855316,"duration":"2855.316000","disposition":{"default":0,"dub":0,"original":0,"comment":0,"lyrics":0,"karaoke":0,"forced":0,"hearing_impaired":0,"visual_impaired":0,"clean_effects":0,"attached_pic":0,"timed_thumbnails":0,"non_diegetic":0,"captions":0,"descriptions":0,"metadata":0,"dependent":0,"still_image":0,"multilayer":0},"tags":{"language":"swe","DURATION":"00:47:31.771000000"}}],"format":{"filename":"V:/tv/Vikings/Season 2/Vikings.S02E06.Unforgiven.EAC3.5.1.1080p.Bluray.x265-iVy.mkv","nb_streams":14,"nb_programs":0,"nb_stream_groups":0,"format_name":"matroska,webm","format_long_name":"Matroska / WebM","start_time":"0.000000","duration":"2855.316000","size":"914484977","bit_rate":"2562196","probe_score":100,"tags":{"creation_time":"2024-01-08T15:12:15.000000Z","ENCODER":"Lavf59.27.100"}}},"meta":{"SourceFile":"V:/tv/Vikings/Season 2/Vikings.S02E06.Unforgiven.EAC3.5.1.1080p.Bluray.x265-iVy.mkv","errors":[],"tz":"UTC","tzSource":"defaultVideosToUTC","Duration":"00:47:31.771000000","ExifToolVersion":12.6,"FileName":"Vikings.S02E06.Unforgiven.EAC3.5.1.1080p.Bluray.x265-iVy.mkv","Directory":"V:/tv/Vikings/Season 2","FileSize":"914 MB","FileModifyDate":{"_ctor":"ExifDateTime","year":2024,"month":1,"day":9,"hour":15,"minute":21,"second":37,"tzoffsetMinutes":-480,"rawValue":"2024:01:09 15:21:37-08:00","zoneName":"UTC-8"},"FileAccessDate":{"_ctor":"ExifDateTime","year":2025,"month":8,"day":22,"hour":20,"minute":53,"second":41,"tzoffsetMinutes":-420,"rawValue":"2025:08:22 20:53:41-07:00","zoneName":"UTC-7"},"FileCreateDate":{"_ctor":"ExifDateTime","year":2025,"month":8,"day":21,"hour":19,"minute":15,"second":13,"tzoffsetMinutes":-420,"rawValue":"2025:08:21 19:15:13-07:00","zoneName":"UTC-7"},"FilePermissions":"-rw-rw-rw-","FileType":"MKV","FileTypeExtension":"mkv","MIMEType":"video/x-matroska","EBMLVersion":1,"EBMLReadVersion":1,"DocType":"matroska","DocTypeVersion":4,"DocTypeReadVersion":2,"TimecodeScale":"1 ms","MuxingApp":"Lavf59.27.100","WritingApp":"HandBrake 1.6.1 2023012300","DateTimeOriginal":{"_ctor":"ExifDateTime","year":2024,"month":1,"day":8,"hour":15,"minute":12,"second":15,"tzoffsetMinutes":0,"rawValue":"2024:01:08 15:12:15Z","zoneName":"UTC"},"VideoFrameRate":23.976,"ImageWidth":1920,"ImageHeight":1080,"AudioChannels":6,"AudioSampleRate":48000,"TrackName":"SDH","TrackNumber":14,"TrackUID":"8ef17b35926f","TrackLanguage":"swe","TrackDefault":"No","CodecID":"S_HDMV/PGS","TrackType":"Subtitle","Encoder":"Lavf59.27.100","TagTrackUID":"8ef17b35926f","ImageSize":"1920x1080","Megapixels":2.1},"mediaInfo":{"@ref":"","track":[{"@type":"General","UniqueID":"201768928345314778444466142880068629090","VideoCount":"1","AudioCount":"1","TextCount":"12","MenuCount":"1","Format":"Matroska","Format_Version":"4","FileSize":"914484977","Duration":"2855.316","OverallBitRate":"2562196","FrameRate":"23.976","FrameCount":"68459","StreamSize":"18200473","IsStreamable":"Yes","Encoded_Date":"2024-01-08 15:12:15 UTC","Encoded_Application":"HandBrake 1.6.1 2023012300","Encoded_Library":"Lavf59.27.100","extra":{"ErrorDetectionType":"Per level 1"}},{"@type":"Video","StreamOrder":"0","ID":"1","UniqueID":"6962785191331851091","Format":"HEVC","Format_Profile":"Main","Format_Level":"4","Format_Tier":"Main","CodecID":"V_MPEGH/ISO/HEVC","Duration":"2855.311000000","BitRate":"1871208","Width":"1920","Height":"1080","Sampled_Width":"1920","Sampled_Height":"1080","PixelAspectRatio":"1.000","DisplayAspectRatio":"1.778","FrameRate_Mode":"CFR","FrameRate":"23.976","FrameRate_Num":"24000","FrameRate_Den":"1001","FrameCount":"68459","ColorSpace":"YUV","ChromaSubsampling":"4:2:0","ChromaSubsampling_Position":"Type 0","BitDepth":"8","Delay":"0.005","Delay_Source":"Container","StreamSize":"667860824","Encoded_Library":"x265 - 3.5+1-f0c1022b6:[Windows][GCC 10.2.0][64 bit] 8bit+10bit+12bit","Encoded_Library_Name":"x265","Encoded_Library_Version":"3.5+1-f0c1022b6:[Windows][GCC 10.2.0][64 bit] 8bit+10bit+12bit","Encoded_Library_Settings":"cpuid=1111039 / frame-threads=5 / numa-pools=32 / wpp / no-pmode / no-pme / no-psnr / no-ssim / log-level=2 / input-csp=1 / input-res=1920x1080 / interlace=0 / total-frames=0 / level-idc=0 / high-tier=1 / uhd-bd=0 / ref=4 / no-allow-non-conformance / no-repeat-headers / annexb / no-aud / no-eob / no-eos / no-hrd / info / hash=0 / no-temporal-layers / open-gop / min-keyint=24 / keyint=240 / gop-lookahead=0 / bframes=4 / b-adapt=2 / b-pyramid / bframe-bias=0 / rc-lookahead=25 / lookahead-slices=4 / scenecut=40 / no-hist-scenecut / radl=0 / no-splice / no-intra-refresh / ctu=64 / min-cu-size=8 / rect / no-amp / max-tu-size=32 / tu-inter-depth=1 / tu-intra-depth=1 / limit-tu=0 / rdoq-level=2 / dynamic-rd=0.00 / no-ssim-rd / signhide / no-tskip / nr-intra=0 / nr-inter=0 / no-constrained-intra / strong-intra-smoothing / max-merge=3 / limit-refs=3 / limit-modes / me=3 / subme=3 / merange=57 / temporal-mvp / no-frame-dup / no-hme / weightp / no-weightb / no-analyze-src-pics / deblock=0:0 / sao / no-sao-non-deblock / rd=4 / selective-sao=4 / no-early-skip / rskip / no-fast-intra / no-tskip-fast / no-cu-lossless / no-b-intra / no-splitrd-skip / rdpenalty=0 / psy-rd=2.00 / psy-rdoq=1.00 / no-rd-refine / no-lossless / cbqpoffs=0 / crqpoffs=0 / rc=crf / crf=23.0 / qcomp=0.60 / qpstep=4 / stats-write=0 / stats-read=0 / ipratio=1.40 / pbratio=1.30 / aq-mode=2 / aq-strength=1.00 / cutree / zone-count=0 / no-strict-cbr / qg-size=32 / no-rc-grain / qpmax=69 / qpmin=0 / no-const-vbv / sar=1 / overscan=0 / videoformat=5 / range=0 / colorprim=1 / transfer=1 / colormatrix=1 / chromaloc=1 / chromaloc-top=0 / chromaloc-bottom=0 / display-window=0 / cll=0,0 / min-luma=0 / max-luma=255 / log2-max-poc-lsb=8 / vui-timing-info / vui-hrd-info / slices=1 / no-opt-qp-pps / no-opt-ref-list-length-pps / no-multi-pass-opt-rps / scenecut-bias=0.05 / no-opt-cu-delta-qp / no-aq-motion / no-sbrc / no-hdr10 / no-hdr10-opt / no-dhdr10-opt / no-idr-recovery-sei / analysis-reuse-level=0 / analysis-save-reuse-level=0 / analysis-load-reuse-level=0 / scale-factor=0 / refine-intra=0 / refine-inter=0 / refine-mv=1 / refine-ctu-distortion=0 / no-limit-sao / ctu-info=0 / no-lowpass-dct / refine-analysis-type=0 / copy-pic=1 / max-ausize-factor=1.0 / no-dynamic-refine / no-single-sei / no-hevc-aq / no-svt / no-field / qp-adaptation-range=1.00 / scenecut-aware-qp=0conformance-window-offsets / right=0 / bottom=0 / decoder-max-rate=0 / no-vbv-live-multi-pass / no-mcstf","Default":"Yes","Forced":"No","colour_description_present":"Yes","colour_description_present_Source":"Container / Stream","colour_range":"Limited","colour_range_Source":"Container / Stream","colour_primaries":"BT.709","colour_primaries_Source":"Container / Stream","transfer_characteristics":"BT.709","transfer_characteristics_Source":"Container / Stream","matrix_coefficients":"BT.709","matrix_coefficients_Source":"Container / Stream"},{"@type":"Audio","StreamOrder":"1","ID":"2","UniqueID":"17345496976548516814","Format":"E-AC-3","Format_Commercial_IfAny":"Dolby Digital Plus","Format_Settings_Endianness":"Big","CodecID":"A_EAC3","Duration":"2855.296000000","BitRate_Mode":"CBR","BitRate":"640000","Channels":"6","ChannelPositions":"Front: L C R, Side: L R, LFE","ChannelLayout":"L R C LFE Ls Rs","SamplesPerFrame":"1536","SamplingRate":"48000","SamplingCount":"137054208","FrameRate":"31.250","Compression_Mode":"Lossy","Delay":"0.000","Delay_Source":"Container","Video_Delay":"-0.005","StreamSize":"228423680","Language":"en","ServiceKind":"CM","Default":"Yes","Forced":"No","extra":{"bsid":"16","dialnorm":"-31","acmod":"7","lfeon":"1","dialnorm_Average":"-31","dialnorm_Minimum":"-31"}},{"@type":"Text","@typeorder":"1","StreamOrder":"2","ID":"3","UniqueID":"4216849978254763320","Format":"PGS","CodecID":"S_HDMV/PGS","Duration":"2851.771000000","Language":"da","Default":"No","Forced":"No"},{"@type":"Text","@typeorder":"2","StreamOrder":"3","ID":"4","UniqueID":"5716914469182144563","Format":"PGS","CodecID":"S_HDMV/PGS","Duration":"2851.771000000","Language":"nl","Default":"No","Forced":"No"},{"@type":"Text","@typeorder":"3","StreamOrder":"4","ID":"5","UniqueID":"10599456665176589862","Format":"PGS","CodecID":"S_HDMV/PGS","Duration":"2795.256000000","Title":"SDH","Language":"en","Default":"No","Forced":"No"},{"@type":"Text","@typeorder":"4","StreamOrder":"5","ID":"6","UniqueID":"13483635087758925495","Format":"PGS","CodecID":"S_HDMV/PGS","Duration":"2851.771000000","Language":"fi","Default":"No","Forced":"No"},{"@type":"Text","@typeorder":"5","StreamOrder":"6","ID":"7","UniqueID":"13944484713893166536","Format":"PGS","CodecID":"S_HDMV/PGS","Duration":"2851.771000000","Language":"fr","Default":"No","Forced":"No"},{"@type":"Text","@typeorder":"6","StreamOrder":"7","ID":"8","UniqueID":"6918794412095717423","Format":"PGS","CodecID":"S_HDMV/PGS","Duration":"2851.771000000","Language":"fr","Default":"No","Forced":"No"},{"@type":"Text","@typeorder":"7","StreamOrder":"8","ID":"9","UniqueID":"8699925399137236729","Format":"PGS","CodecID":"S_HDMV/PGS","Duration":"2851.771000000","Language":"is","Default":"No","Forced":"No"},{"@type":"Text","@typeorder":"8","StreamOrder":"9","ID":"10","UniqueID":"12315673763963639790","Format":"PGS","CodecID":"S_HDMV/PGS","Duration":"2851.771000000","Language":"no","Default":"No","Forced":"No"},{"@type":"Text","@typeorder":"9","StreamOrder":"10","ID":"11","UniqueID":"16543134265537461169","Format":"PGS","CodecID":"S_HDMV/PGS","Duration":"2851.771000000","Language":"pt","Default":"No","Forced":"No"},{"@type":"Text","@typeorder":"10","StreamOrder":"11","ID":"12","UniqueID":"18144429154445224208","Format":"PGS","CodecID":"S_HDMV/PGS","Duration":"2851.771000000","Language":"es","Default":"No","Forced":"No"},{"@type":"Text","@typeorder":"11","StreamOrder":"12","ID":"13","UniqueID":"1295703927185653184","Format":"PGS","CodecID":"S_HDMV/PGS","Duration":"2851.771000000","Language":"es","Default":"No","Forced":"No"},{"@type":"Text","@typeorder":"12","StreamOrder":"13","ID":"14","UniqueID":"10300149292793266342","Format":"PGS","CodecID":"S_HDMV/PGS","Duration":"2851.771000000","Language":"sv","Default":"No","Forced":"No"},{"@type":"Menu","extra":{"_00_00_00_000":"Chapter 1","_00_00_51_051":"Chapter 2","_00_02_45_332":"Chapter 3","_00_06_45_614":"Chapter 4","_00_11_22_682":"Chapter 5","_00_15_20_128":"Chapter 6","_00_21_40_174":"Chapter 7","_00_27_44_955":"Chapter 8","_00_31_08_325":"Chapter 9","_00_34_58_430":"Chapter 10","_00_36_41_116":"Chapter 11","_00_41_37_996":"Chapter 12"}}]},"hasClosedCaptions":false,"bumped":false,"HealthCheck":"","TranscodeDecisionMaker":"","holdUntil":0,"fileMedium":"video","video_codec_name":"hevc","audio_codec_name":"eac3","video_resolution":"1080p","lastHealthCheckDate":0,"lastTranscodeDate":0,"history":"","oldSize":0.8516805032268167,"newSize":0,"newVsOldRatio":0,"videoStreamIndex":0,"duration":2855}}
2025-08-23T01:04:11.675Z 08y9yCN47:Node[wrz-desk]:Worker[young-yak]:[Step W02] Loading flow
2025-08-23T01:04:11.679Z 08y9yCN47:Node[wrz-desk]:Worker[young-yak]:Item from queue, creating flow
2025-08-23T01:04:11.684Z 08y9yCN47:Node[wrz-desk]:Worker[young-yak]:Creating workDir: Y:/cache/tdarr-workDir2-08y9yCN47
2025-08-23T01:04:11.687Z 08y9yCN47:Node[wrz-desk]:Worker[young-yak]:Found next plugin: KZerOkdlG::inputFile_1 Input File
2025-08-23T01:04:11.691Z 08y9yCN47:Node[wrz-desk]:Worker[young-yak]:[Step W03] [C1] [Roku HEVC Optimization v12] Running Community plugin: 1.0.0: inputFile: Input File 
2025-08-23T01:04:11.693Z 08y9yCN47:Node[wrz-desk]:Worker[young-yak]:Scanning original library file
```
### Hit 2 @ line ~134
```
2025-08-23T01:04:13.932Z   "closedCaptionScan": false
2025-08-23T01:04:13.932Z }
2025-08-23T01:04:13.933Z 08y9yCN47:Node[wrz-desk]:Worker[young-yak]:Node scanning file
2025-08-23T01:04:13.934Z 08y9yCN47:Node[wrz-desk]:Worker[young-yak]:Scanning file
2025-08-23T01:04:15.955Z 08y9yCN47:Node[wrz-desk]:Worker[young-yak]:Source file scan complete
2025-08-23T01:04:15.961Z 08y9yCN47:Node[wrz-desk]:Worker[young-yak]:Scan complete
2025-08-23T01:04:15.965Z 08y9yCN47:Node[wrz-desk]:Worker[young-yak]:fileVfileVersionLogJSONString:{"lastCliCommand":"","lastPluginId":"","sourceFile":{"_id":"V:/tv/Vikings/Season 2/Vikings.S02E06.Unforgiven.EAC3.5.1.1080p.Bluray.x265-iVy.mkv","DB":"5vqJ1Pb22","footprintId":"Dn96pX69u","file":"V:/tv/Vikings/Season 2/Vikings.S02E06.Unforgiven.EAC3.5.1.1080p.Bluray.x265-iVy.mkv","fileNameWithoutExtension":"Vikings.S02E06.Unforgiven.EAC3.5.1.1080p.Bluray.x265-iVy","container":"mkv","scannerReads":{"ffProbeRead":"success","exiftoolRead":"success","mediaInfoRead":"success","closedCaptionRead":"not enabled"},"createdAt":1755936250438,"lastPluginDetails":"none","bit_rate":2562196,"statSync":{"dev":3145496900,"mode":33206,"nlink":1,"uid":0,"gid":0,"rdev":0,"blksize":4096,"ino":51144256,"size":914484977,"blocks":1786112,"atimeMs":1755921221515.7014,"mtimeMs":1704842497000,"ctimeMs":1704842497000,"birthtimeMs":1755828913402.7268,"atime":"2025-08-23T03:53:41.516Z","mtime":"2024-01-09T23:21:37.000Z","ctime":"2024-01-09T23:21:37.000Z","birthtime":"2025-08-22T02:15:13.403Z"},"file_size":872.1208353042603,"ffProbeData":{"streams":[{"index":0,"codec_name":"hevc","codec_long_name":"H.265 / HEVC (High Efficiency Video Coding)","profile":"Main","codec_type":"video","codec_tag_string":"[0][0][0][0]","codec_tag":"0x0000","width":1920,"height":1080,"coded_width":1920,"coded_height":1080,"closed_captions":0,"film_grain":0,"has_b_frames":2,"sample_aspect_ratio":"1:1","display_aspect_ratio":"16:9","pix_fmt":"yuv420p","level":120,"color_range":"tv","color_space":"bt709","color_transfer":"bt709","color_primaries":"bt709","chroma_location":"left","refs":1,"view_ids_available":"","view_pos_available":"","r_frame_rate":"24000/1001","avg_frame_rate":"24000/1001","time_base":"1/1000","start_pts":5,"start_time":"0.005000","extradata_size":2483,"disposition":{"default":1,"dub":0,"original":0,"comment":0,"lyrics":0,"karaoke":0,"forced":0,"hearing_impaired":0,"visual_impaired":0,"clean_effects":0,"attached_pic":0,"timed_thumbnails":0,"non_diegetic":0,"captions":0,"descriptions":0,"metadata":0,"dependent":0,"still_image":0,"multilayer":0},"tags":{"DURATION":"00:47:35.316000000"}},{"index":1,"codec_name":"eac3","codec_long_name":"ATSC A/52B (AC-3, E-AC-3)","codec_type":"audio","codec_tag_string":"[0][0][0][0]","codec_tag":"0x0000","sample_fmt":"fltp","sample_rate":"48000","channels":6,"channel_layout":"5.1(side)","bits_per_sample":0,"initial_padding":0,"r_frame_rate":"0/0","avg_frame_rate":"0/0","time_base":"1/1000","start_pts":0,"start_time":"0.000000","bit_rate":"640000","disposition":{"default":1,"dub":0,"original":0,"comment":0,"lyrics":0,"karaoke":0,"forced":0,"hearing_impaired":0,"visual_impaired":0,"clean_effects":0,"attached_pic":0,"timed_thumbnails":0,"non_diegetic":0,"captions":0,"descriptions":0,"metadata":0,"dependent":0,"still_image":0,"multilayer":0},"tags":{"language":"eng","DURATION":"00:47:35.296000000"}},{"index":2,"codec_name":"hdmv_pgs_subtitle","codec_long_name":"HDMV Presentation Graphic Stream subtitles","codec_type":"subtitle","codec_tag_string":"[0][0][0][0]","codec_tag":"0x0000","r_frame_rate":"0/0","avg_frame_rate":"0/0","time_base":"1/1000","start_pts":0,"start_time":"0.000000","duration_ts":2855316,"duration":"2855.316000","disposition":{"default":0,"dub":0,"original":0,"comment":0,"lyrics":0,"karaoke":0,"forced":0,"hearing_impaired":0,"visual_impaired":0,"clean_effects":0,"attached_pic":0,"timed_thumbnails":0,"non_diegetic":0,"captions":0,"descriptions":0,"metadata":0,"dependent":0,"still_image":0,"multilayer":0},"tags":{"language":"dan","DURATION":"00:47:31.771000000"}},{"index":3,"codec_name":"hdmv_pgs_subtitle","codec_long_name":"HDMV Presentation Graphic Stream subtitles","codec_type":"subtitle","codec_tag_string":"[0][0][0][0]","codec_tag":"0x0000","r_frame_rate":"0/0","avg_frame_rate":"0/0","time_base":"1/1000","start_pts":0,"start_time":"0.000000","duration_ts":2855316,"duration":"2855.316000","disposition":{"default":0,"dub":0,"original":0,"comment":0,"lyrics":0,"karaoke":0,"forced":0,"hearing_impaired":0,"visual_impaired":0,"clean_effects":0,"attached_pic":0,"timed_thumbnails":0,"non_diegetic":0,"captions":0,"descriptions":0,"metadata":0,"dependent":0,"still_image":0,"multilayer":0},"tags":{"language":"dut","DURATION":"00:47:31.771000000"}},{"index":4,"codec_name":"hdmv_pgs_subtitle","codec_long_name":"HDMV Presentation Graphic Stream subtitles","codec_type":"subtitle","codec_tag_string":"[0][0][0][0]","codec_tag":"0x0000","width":1920,"height":1080,"r_frame_rate":"0/0","avg_frame_rate":"0/0","time_base":"1/1000","start_pts":1173,"start_time":"1.173000","disposition":{"default":0,"dub":0,"original":0,"comment":0,"lyrics":0,"karaoke":0,"forced":0,"hearing_impaired":0,"visual_impaired":0,"clean_effects":0,"attached_pic":0,"timed_thumbnails":0,"non_diegetic":0,"captions":0,"descriptions":0,"metadata":0,"dependent":0,"still_image":0,"multilayer":0},"tags":{"language":"eng","title":"SDH","DURATION":"00:46:35.256000000"}},{"index":5,"codec_name":"hdmv_pgs_subtitle","codec_long_name":"HDMV Presentation Graphic Stream subtitles","codec_type":"subtitle","codec_tag_string":"[0][0][0][0]","codec_tag":"0x0000","r_frame_rate":"0/0","avg_frame_rate":"0/0","time_base":"1/1000","start_pts":0,"start_time":"0.000000","duration_ts":2855316,"duration":"2855.316000","disposition":{"default":0,"dub":0,"original":0,"comment":0,"lyrics":0,"karaoke":0,"forced":0,"hearing_impaired":0,"visual_impaired":0,"clean_effects":0,"attached_pic":0,"timed_thumbnails":0,"non_diegetic":0,"captions":0,"descriptions":0,"metadata":0,"dependent":0,"still_image":0,"multilayer":0},"tags":{"language":"fin","DURATION":"00:47:31.771000000"}},{"index":6,"codec_name":"hdmv_pgs_subtitle","codec_long_name":"HDMV Presentation Graphic Stream subtitles","codec_type":"subtitle","codec_tag_string":"[0][0][0][0]","codec_tag":"0x0000","r_frame_rate":"0/0","avg_frame_rate":"0/0","time_base":"1/1000","start_pts":0,"start_time":"0.000000","duration_ts":2855316,"duration":"2855.316000","disposition":{"default":0,"dub":0,"original":0,"comment":0,"lyrics":0,"karaoke":0,"forced":0,"hearing_impaired":0,"visual_impaired":0,"clean_effects":0,"attached_pic":0,"timed_thumbnails":0,"non_diegetic":0,"captions":0,"descriptions":0,"metadata":0,"dependent":0,"still_image":0,"multilayer":0},"tags":{"language":"fre","DURATION":"00:47:31.771000000"}},{"index":7,"codec_name":"hdmv_pgs_subtitle","codec_long_name":"HDMV Presentation Graphic Stream subtitles","codec_type":"subtitle","codec_tag_string":"[0][0][0][0]","codec_tag":"0x0000","r_frame_rate":"0/0","avg_frame_rate":"0/0","time_base":"1/1000","start_pts":0,"start_time":"0.000000","duration_ts":2855316,"duration":"2855.316000","disposition":{"default":0,"dub":0,"original":0,"comment":0,"lyrics":0,"karaoke":0,"forced":0,"hearing_impaired":0,"visual_impaired":0,"clean_effects":0,"attached_pic":0,"timed_thumbnails":0,"non_diegetic":0,"captions":0,"descriptions":0,"metadata":0,"dependent":0,"still_image":0,"multilayer":0},"tags":{"language":"fre","DURATION":"00:47:31.771000000"}},{"index":8,"codec_name":"hdmv_pgs_subtitle","codec_long_name":"HDMV Presentation Graphic Stream subtitles","codec_type":"subtitle","codec_tag_string":"[0][0][0][0]","codec_tag":"0x0000","r_frame_rate":"0/0","avg_frame_rate":"0/0","time_base":"1/1000","start_pts":0,"start_time":"0.000000","duration_ts":2855316,"duration":"2855.316000","disposition":{"default":0,"dub":0,"original":0,"comment":0,"lyrics":0,"karaoke":0,"forced":0,"hearing_impaired":0,"visual_impaired":0,"clean_effects":0,"attached_pic":0,"timed_thumbnails":0,"non_diegetic":0,"captions":0,"descriptions":0,"metadata":0,"dependent":0,"still_image":0,"multilayer":0},"tags":{"language":"ice","DURATION":"00:47:31.771000000"}},{"index":9,"codec_name":"hdmv_pgs_subtitle","codec_long_name":"HDMV Presentation Graphic Stream subtitles","codec_type":"subtitle","codec_tag_string":"[0][0][0][0]","codec_tag":"0x0000","r_frame_rate":"0/0","avg_frame_rate":"0/0","time_base":"1/1000","start_pts":0,"start_time":"0.000000","duration_ts":2855316,"duration":"2855.316000","disposition":{"default":0,"dub":0,"original":0,"comment":0,"lyrics":0,"karaoke":0,"forced":0,"hearing_impaired":0,"visual_impaired":0,"clean_effects":0,"attached_pic":0,"timed_thumbnails":0,"non_diegetic":0,"captions":0,"descriptions":0,"metadata":0,"dependent":0,"still_image":0,"multilayer":0},"tags":{"language":"nor","DURATION":"00:47:31.771000000"}},{"index":10,"codec_name":"hdmv_pgs_subtitle","codec_long_name":"HDMV Presentation Graphic Stream subtitles","codec_type":"subtitle","codec_tag_string":"[0][0][0][0]","codec_tag":"0x0000","r_frame_rate":"0/0","avg_frame_rate":"0/0","time_base":"1/1000","start_pts":0,"start_time":"0.000000","duration_ts":2855316,"duration":"2855.316000","disposition":{"default":0,"dub":0,"original":0,"comment":0,"lyrics":0,"karaoke":0,"forced":0,"hearing_impaired":0,"visual_impaired":0,"clean_effects":0,"attached_pic":0,"timed_thumbnails":0,"non_diegetic":0,"captions":0,"descriptions":0,"metadata":0,"dependent":0,"still_image":0,"multilayer":0},"tags":{"language":"por","DURATION":"00:47:31.771000000"}},{"index":11,"codec_name":"hdmv_pgs_subtitle","codec_long_name":"HDMV Presentation Graphic Stream subtitles","codec_type":"subtitle","codec_tag_string":"[0][0][0][0]","codec_tag":"0x0000","r_frame_rate":"0/0","avg_frame_rate":"0/0","time_base":"1/1000","start_pts":0,"start_time":"0.000000","duration_ts":2855316,"duration":"2855.316000","disposition":{"default":0,"dub":0,"original":0,"comment":0,"lyrics":0,"karaoke":0,"forced":0,"hearing_impaired":0,"visual_impaired":0,"clean_effects":0,"attached_pic":0,"timed_thumbnails":0,"non_diegetic":0,"captions":0,"descriptions":0,"metadata":0,"dependent":0,"still_image":0,"multilayer":0},"tags":{"language":"spa","DURATION":"00:47:31.771000000"}},{"index":12,"codec_name":"hdmv_pgs_subtitle","codec_long_name":"HDMV Presentation Graphic Stream subtitles","codec_type":"subtitle","codec_tag_string":"[0][0][0][0]","codec_tag":"0x0000","r_frame_rate":"0/0","avg_frame_rate":"0/0","time_base":"1/1000","start_pts":0,"start_time":"0.000000","duration_ts":2855316,"duration":"2855.316000","disposition":{"default":0,"dub":0,"original":0,"comment":0,"lyrics":0,"karaoke":0,"forced":0,"hearing_impaired":0,"visual_impaired":0,"clean_effects":0,"attached_pic":0,"timed_thumbnails":0,"non_diegetic":0,"captions":0,"descriptions":0,"metadata":0,"dependent":0,"still_image":0,"multilayer":0},"tags":{"language":"spa","DURATION":"00:47:31.771000000"}},{"index":13,"codec_name":"hdmv_pgs_subtitle","codec_long_name":"HDMV Presentation Graphic Stream subtitles","codec_type":"subtitle","codec_tag_string":"[0][0][0][0]","codec_tag":"0x0000","r_frame_rate":"0/0","avg_frame_rate":"0/0","time_base":"1/1000","start_pts":0,"start_time":"0.000000","duration_ts":2855316,"duration":"2855.316000","disposition":{"default":0,"dub":0,"original":0,"comment":0,"lyrics":0,"karaoke":0,"forced":0,"hearing_impaired":0,"visual_impaired":0,"clean_effects":0,"attached_pic":0,"timed_thumbnails":0,"non_diegetic":0,"captions":0,"descriptions":0,"metadata":0,"dependent":0,"still_image":0,"multilayer":0},"tags":{"language":"swe","DURATION":"00:47:31.771000000"}}],"format":{"filename":"V:/tv/Vikings/Season 2/Vikings.S02E06.Unforgiven.EAC3.5.1.1080p.Bluray.x265-iVy.mkv","nb_streams":14,"nb_programs":0,"nb_stream_groups":0,"format_name":"matroska,webm","format_long_name":"Matroska / WebM","start_time":"0.000000","duration":"2855.316000","size":"914484977","bit_rate":"2562196","probe_score":100,"tags":{"creation_time":"2024-01-08T15:12:15.000000Z","ENCODER":"Lavf59.27.100"}}},"meta":{"SourceFile":"V:/tv/Vikings/Season 2/Vikings.S02E06.Unforgiven.EAC3.5.1.1080p.Bluray.x265-iVy.mkv","errors":[],"tz":"UTC","tzSource":"defaultVideosToUTC","Duration":"00:47:31.771000000","ExifToolVersion":12.6,"FileName":"Vikings.S02E06.Unforgiven.EAC3.5.1.1080p.Bluray.x265-iVy.mkv","Directory":"V:/tv/Vikings/Season 2","FileSize":"914 MB","FileModifyDate":{"_ctor":"ExifDateTime","year":2024,"month":1,"day":9,"hour":15,"minute":21,"second":37,"tzoffsetMinutes":-480,"rawValue":"2024:01:09 15:21:37-08:00","zoneName":"UTC-8"},"FileAccessDate":{"_ctor":"ExifDateTime","year":2025,"month":8,"day":22,"hour":20,"minute":53,"second":41,"tzoffsetMinutes":-420,"rawValue":"2025:08:22 20:53:41-07:00","zoneName":"UTC-7"},"FileCreateDate":{"_ctor":"ExifDateTime","year":2025,"month":8,"day":21,"hour":19,"minute":15,"second":13,"tzoffsetMinutes":-420,"rawValue":"2025:08:21 19:15:13-07:00","zoneName":"UTC-7"},"FilePermissions":"-rw-rw-rw-","FileType":"MKV","FileTypeExtension":"mkv","MIMEType":"video/x-matroska","EBMLVersion":1,"EBMLReadVersion":1,"DocType":"matroska","DocTypeVersion":4,"DocTypeReadVersion":2,"TimecodeScale":"1 ms","MuxingApp":"Lavf59.27.100","WritingApp":"HandBrake 1.6.1 2023012300","DateTimeOriginal":{"_ctor":"ExifDateTime","year":2024,"month":1,"day":8,"hour":15,"minute":12,"second":15,"tzoffsetMinutes":0,"rawValue":"2024:01:08 15:12:15Z","zoneName":"UTC"},"VideoFrameRate":23.976,"ImageWidth":1920,"ImageHeight":1080,"AudioChannels":6,"AudioSampleRate":48000,"TrackName":"SDH","TrackNumber":14,"TrackUID":"8ef17b35926f","TrackLanguage":"swe","TrackDefault":"No","CodecID":"S_HDMV/PGS","TrackType":"Subtitle","Encoder":"Lavf59.27.100","TagTrackUID":"8ef17b35926f","ImageSize":"1920x1080","Megapixels":2.1},"mediaInfo":{"@ref":"","track":[{"@type":"General","UniqueID":"201768928345314778444466142880068629090","VideoCount":"1","AudioCount":"1","TextCount":"12","MenuCount":"1","Format":"Matroska","Format_Version":"4","FileSize":"914484977","Duration":"2855.316","OverallBitRate":"2562196","FrameRate":"23.976","FrameCount":"68459","StreamSize":"18200473","IsStreamable":"Yes","Encoded_Date":"2024-01-08 15:12:15 UTC","Encoded_Application":"HandBrake 1.6.1 2023012300","Encoded_Library":"Lavf59.27.100","extra":{"ErrorDetectionType":"Per level 1"}},{"@type":"Video","StreamOrder":"0","ID":"1","UniqueID":"6962785191331851091","Format":"HEVC","Format_Profile":"Main","Format_Level":"4","Format_Tier":"Main","CodecID":"V_MPEGH/ISO/HEVC","Duration":"2855.311000000","BitRate":"1871208","Width":"1920","Height":"1080","Sampled_Width":"1920","Sampled_Height":"1080","PixelAspectRatio":"1.000","DisplayAspectRatio":"1.778","FrameRate_Mode":"CFR","FrameRate":"23.976","FrameRate_Num":"24000","FrameRate_Den":"1001","FrameCount":"68459","ColorSpace":"YUV","ChromaSubsampling":"4:2:0","ChromaSubsampling_Position":"Type 0","BitDepth":"8","Delay":"0.005","Delay_Source":"Container","StreamSize":"667860824","Encoded_Library":"x265 - 3.5+1-f0c1022b6:[Windows][GCC 10.2.0][64 bit] 8bit+10bit+12bit","Encoded_Library_Name":"x265","Encoded_Library_Version":"3.5+1-f0c1022b6:[Windows][GCC 10.2.0][64 bit] 8bit+10bit+12bit","Encoded_Library_Settings":"cpuid=1111039 / frame-threads=5 / numa-pools=32 / wpp / no-pmode / no-pme / no-psnr / no-ssim / log-level=2 / input-csp=1 / input-res=1920x1080 / interlace=0 / total-frames=0 / level-idc=0 / high-tier=1 / uhd-bd=0 / ref=4 / no-allow-non-conformance / no-repeat-headers / annexb / no-aud / no-eob / no-eos / no-hrd / info / hash=0 / no-temporal-layers / open-gop / min-keyint=24 / keyint=240 / gop-lookahead=0 / bframes=4 / b-adapt=2 / b-pyramid / bframe-bias=0 / rc-lookahead=25 / lookahead-slices=4 / scenecut=40 / no-hist-scenecut / radl=0 / no-splice / no-intra-refresh / ctu=64 / min-cu-size=8 / rect / no-amp / max-tu-size=32 / tu-inter-depth=1 / tu-intra-depth=1 / limit-tu=0 / rdoq-level=2 / dynamic-rd=0.00 / no-ssim-rd / signhide / no-tskip / nr-intra=0 / nr-inter=0 / no-constrained-intra / strong-intra-smoothing / max-merge=3 / limit-refs=3 / limit-modes / me=3 / subme=3 / merange=57 / temporal-mvp / no-frame-dup / no-hme / weightp / no-weightb / no-analyze-src-pics / deblock=0:0 / sao / no-sao-non-deblock / rd=4 / selective-sao=4 / no-early-skip / rskip / no-fast-intra / no-tskip-fast / no-cu-lossless / no-b-intra / no-splitrd-skip / rdpenalty=0 / psy-rd=2.00 / psy-rdoq=1.00 / no-rd-refine / no-lossless / cbqpoffs=0 / crqpoffs=0 / rc=crf / crf=23.0 / qcomp=0.60 / qpstep=4 / stats-write=0 / stats-read=0 / ipratio=1.40 / pbratio=1.30 / aq-mode=2 / aq-strength=1.00 / cutree / zone-count=0 / no-strict-cbr / qg-size=32 / no-rc-grain / qpmax=69 / qpmin=0 / no-const-vbv / sar=1 / overscan=0 / videoformat=5 / range=0 / colorprim=1 / transfer=1 / colormatrix=1 / chromaloc=1 / chromaloc-top=0 / chromaloc-bottom=0 / display-window=0 / cll=0,0 / min-luma=0 / max-luma=255 / log2-max-poc-lsb=8 / vui-timing-info / vui-hrd-info / slices=1 / no-opt-qp-pps / no-opt-ref-list-length-pps / no-multi-pass-opt-rps / scenecut-bias=0.05 / no-opt-cu-delta-qp / no-aq-motion / no-sbrc / no-hdr10 / no-hdr10-opt / no-dhdr10-opt / no-idr-recovery-sei / analysis-reuse-level=0 / analysis-save-reuse-level=0 / analysis-load-reuse-level=0 / scale-factor=0 / refine-intra=0 / refine-inter=0 / refine-mv=1 / refine-ctu-distortion=0 / no-limit-sao / ctu-info=0 / no-lowpass-dct / refine-analysis-type=0 / copy-pic=1 / max-ausize-factor=1.0 / no-dynamic-refine / no-single-sei / no-hevc-aq / no-svt / no-field / qp-adaptation-range=1.00 / scenecut-aware-qp=0conformance-window-offsets / right=0 / bottom=0 / decoder-max-rate=0 / no-vbv-live-multi-pass / no-mcstf","Default":"Yes","Forced":"No","colour_description_present":"Yes","colour_description_present_Source":"Container / Stream","colour_range":"Limited","colour_range_Source":"Container / Stream","colour_primaries":"BT.709","colour_primaries_Source":"Container / Stream","transfer_characteristics":"BT.709","transfer_characteristics_Source":"Container / Stream","matrix_coefficients":"BT.709","matrix_coefficients_Source":"Container / Stream"},{"@type":"Audio","StreamOrder":"1","ID":"2","UniqueID":"17345496976548516814","Format":"E-AC-3","Format_Commercial_IfAny":"Dolby Digital Plus","Format_Settings_Endianness":"Big","CodecID":"A_EAC3","Duration":"2855.296000000","BitRate_Mode":"CBR","BitRate":"640000","Channels":"6","ChannelPositions":"Front: L C R, Side: L R, LFE","ChannelLayout":"L R C LFE Ls Rs","SamplesPerFrame":"1536","SamplingRate":"48000","SamplingCount":"137054208","FrameRate":"31.250","Compression_Mode":"Lossy","Delay":"0.000","Delay_Source":"Container","Video_Delay":"-0.005","StreamSize":"228423680","Language":"en","ServiceKind":"CM","Default":"Yes","Forced":"No","extra":{"bsid":"16","dialnorm":"-31","acmod":"7","lfeon":"1","dialnorm_Average":"-31","dialnorm_Minimum":"-31"}},{"@type":"Text","@typeorder":"1","StreamOrder":"2","ID":"3","UniqueID":"4216849978254763320","Format":"PGS","CodecID":"S_HDMV/PGS","Duration":"2851.771000000","Language":"da","Default":"No","Forced":"No"},{"@type":"Text","@typeorder":"2","StreamOrder":"3","ID":"4","UniqueID":"5716914469182144563","Format":"PGS","CodecID":"S_HDMV/PGS","Duration":"2851.771000000","Language":"nl","Default":"No","Forced":"No"},{"@type":"Text","@typeorder":"3","StreamOrder":"4","ID":"5","UniqueID":"10599456665176589862","Format":"PGS","CodecID":"S_HDMV/PGS","Duration":"2795.256000000","Title":"SDH","Language":"en","Default":"No","Forced":"No"},{"@type":"Text","@typeorder":"4","StreamOrder":"5","ID":"6","UniqueID":"13483635087758925495","Format":"PGS","CodecID":"S_HDMV/PGS","Duration":"2851.771000000","Language":"fi","Default":"No","Forced":"No"},{"@type":"Text","@typeorder":"5","StreamOrder":"6","ID":"7","UniqueID":"13944484713893166536","Format":"PGS","CodecID":"S_HDMV/PGS","Duration":"2851.771000000","Language":"fr","Default":"No","Forced":"No"},{"@type":"Text","@typeorder":"6","StreamOrder":"7","ID":"8","UniqueID":"6918794412095717423","Format":"PGS","CodecID":"S_HDMV/PGS","Duration":"2851.771000000","Language":"fr","Default":"No","Forced":"No"},{"@type":"Text","@typeorder":"7","StreamOrder":"8","ID":"9","UniqueID":"8699925399137236729","Format":"PGS","CodecID":"S_HDMV/PGS","Duration":"2851.771000000","Language":"is","Default":"No","Forced":"No"},{"@type":"Text","@typeorder":"8","StreamOrder":"9","ID":"10","UniqueID":"12315673763963639790","Format":"PGS","CodecID":"S_HDMV/PGS","Duration":"2851.771000000","Language":"no","Default":"No","Forced":"No"},{"@type":"Text","@typeorder":"9","StreamOrder":"10","ID":"11","UniqueID":"16543134265537461169","Format":"PGS","CodecID":"S_HDMV/PGS","Duration":"2851.771000000","Language":"pt","Default":"No","Forced":"No"},{"@type":"Text","@typeorder":"10","StreamOrder":"11","ID":"12","UniqueID":"18144429154445224208","Format":"PGS","CodecID":"S_HDMV/PGS","Duration":"2851.771000000","Language":"es","Default":"No","Forced":"No"},{"@type":"Text","@typeorder":"11","StreamOrder":"12","ID":"13","UniqueID":"1295703927185653184","Format":"PGS","CodecID":"S_HDMV/PGS","Duration":"2851.771000000","Language":"es","Default":"No","Forced":"No"},{"@type":"Text","@typeorder":"12","StreamOrder":"13","ID":"14","UniqueID":"10300149292793266342","Format":"PGS","CodecID":"S_HDMV/PGS","Duration":"2851.771000000","Language":"sv","Default":"No","Forced":"No"},{"@type":"Menu","extra":{"_00_00_00_000":"Chapter 1","_00_00_51_051":"Chapter 2","_00_02_45_332":"Chapter 3","_00_06_45_614":"Chapter 4","_00_11_22_682":"Chapter 5","_00_15_20_128":"Chapter 6","_00_21_40_174":"Chapter 7","_00_27_44_955":"Chapter 8","_00_31_08_325":"Chapter 9","_00_34_58_430":"Chapter 10","_00_36_41_116":"Chapter 11","_00_41_37_996":"Chapter 12"}}]},"hasClosedCaptions":false,"bumped":false,"HealthCheck":"","TranscodeDecisionMaker":"","holdUntil":0,"fileMedium":"video","video_codec_name":"hevc","audio_codec_name":"eac3","video_resolution":"1080p","lastHealthCheckDate":0,"lastTranscodeDate":0,"history":"","oldSize":0.8516805032268167,"newSize":0,"newVsOldRatio":0,"videoStreamIndex":0,"duration":2855}}
2025-08-23T01:04:15.967Z 08y9yCN47:Node[wrz-desk]:Worker[young-yak]:Loaded plugin inputs: {
2025-08-23T01:04:15.967Z   "code": "// Smart Media Preprocessor\n// Single-stage preprocessing for problematic media files before standard Tdarr transcoding\n// Handles: language detection from titles, subtitle conversion, stream filtering, compatibility optimization\n\n// === MODULE-LEVEL CONSTANTS ===\nconst VERBOSE = true; // Global logging flag\n\n// Enhanced language detection patterns\nconst languagePatterns = {\n  eng: [\n    /\\benglish\\b/i, /\\beng\\b/i, /\\ben\\b/i, /\\ben[-_]us\\b/i, /\\ben[-_]gb\\b/i,\n    /\\ben[-_]au\\b/i, /\\ben[-_]ca\\b/i, /\\benglish\\s+audio\\b/i\n  ],\n  jpn: [\n    /\\bjapanese\\b/i, /\\bjpn\\b/i, /\\bja\\b/i, /\\bja[-_]jp\\b/i,\n    /\\bnihongo\\b/i, /\\b日本語\\b/i, /\\bjapanese\\s+audio\\b/i\n  ],\n  kor: [\n    /\\bkorean\\b/i, /\\bkor\\b/i, /\\bko\\b/i, /\\bko[-_]kr\\b/i,\n    /\\bhangul\\b/i, /\\b한국어\\b/i, /\\bkorean\\s+audio\\b/i\n  ],\n  fre: [\n    /\\bfrench\\b/i, /\\bfre\\b/i, /\\bfr\\b/i, /\\bfr[-_]fr\\b/i,\n    /\\bfrancais\\b/i, /\\bfrançais\\b/i, /\\bfrench\\s+audio\\b/i\n  ]\n};\n\n// Commentary detection patterns\nconst commentaryPatterns = [\n  /commentary/i, /director.?s?\\s+commentary/i, /cast\\s+commentary/i,\n  /production.*commentary/i, /design.*commentary/i, /audio\\s+commentary/i,\n  /filmmaker.*commentary/i, /writer.*commentary/i, /producer.*commentary/i,\n  /behind.*scenes/i, /making.*of/i, /^commentary$/i, /\\bcomm\\b/i,\n  /director.*track/i, /bonus.*audio/i, /audio\\s+description/i,\n  /descriptive\\s+audio/i, /described\\s+video/i, /\\bad\\b/i,\n  /vision.*impaired/i, /accessibility/i\n];\n\n// === HELPER FUNCTIONS ===\n\n/**\n * Converts time string (HH:MM:SS.SS) to seconds\n * @param {string} timeString - Time string in HH:MM:SS.SS format\n * @returns {number} Time in seconds\n */\nfunction timeToSeconds(timeString) {\n  const parts = timeString.split(':');\n  const hours = parseInt(parts[0], 10);\n  const minutes = parseInt(parts[1], 10);\n  const seconds = parseFloat(parts[2]);\n  return hours * 3600 + minutes * 60 + seconds;\n}\n\n/**\n * Detects language from stream metadata using title and language tags\n * @param {Object} stream - FFprobe stream object\n * @returns {string} Detected language code or 'commentary' or 'unknown'\n */\nfunction detectLanguage(stream) {\n  const title = (stream.tags?.title || '').toLowerCase();\n  const language = (stream.tags?.language || '').toLowerCase();\n  \n  // Check for commentary first (highest priority)\n  const textToCheck = `${title} ${language}`.trim();\n  if (commentaryPatterns.some(pattern => pattern.test(textToCheck))) {\n    return 'commentary';\n  }\n\n  // Check if language tag is already a known ISO code (second priority)\n  if (['eng', 'en', 'english'].includes(language)) return 'eng';\n  if (['jpn', 'ja', 'japanese'].includes(language)) return 'jpn';\n  if (['kor', 'ko', 'korean'].includes(language)) return 'kor';\n  if (['fre', 'fr', 'french', 'fra'].includes(language)) return 'fre';\n\n  // Check title for language patterns (third priority - more thorough)\n  for (const [langCode, patterns] of Object.entries(languagePatterns)) {\n    // Check title first (more specific)\n    if (title && patterns.some(pattern => pattern.test(title))) {\n      return langCode;\n    }\n  }\n\n  // Check combined text as fallback (fourth priority)\n  for (const [langCode, patterns] of Object.entries(languagePatterns)) {\n    if (patterns.some(pattern => pattern.test(textToCheck))) {\n      return langCode;\n    }\n  }\n\n  // If we still can't detect, check for common language indicators in title\n  if (title) {\n    // Additional title-based detection for edge cases\n    if (/\\b(dub|dubbed)\\b/i.test(title) && !/\\b(sub|subtitle)\\b/i.test(title)) {\n      // If it says \"dub\" but no specific language, assume English dub\n      return 'eng';\n    }\n    if (/\\b(original|org)\\b/i.test(title)) {\n      // Original audio - could be any language, but often Japanese for anime\n      // We'll still mark as unknown to let other logic handle it\n    }\n  }\n\n  return 'unknown';\n}\n\n/* \n * Validates if an audio stream contains actual data and can be safely muxed\n * @param {Object} stream - FFprobe stream object\n * @param {number} index - Stream index\n * @param {Object} args - Tdarr plugin arguments object\n * @param {string} sourceFile - Path to source file for deep validation\n * @param {string} ffprobePath - Path to ffprobe executable\n * @param {string} ffmpegPath - Path to ffmpeg executable\n * @returns {boolean} True if stream is valid, false otherwise\n */\nfunction validateAudioStream(stream, index, args, sourceFile, ffprobePath, ffmpegPath) {\n  const codec = stream.codec_name || '';\n  const duration = parseFloat(stream.duration) || 0;\n  const tags = stream.tags || {};\n  \n  // Get audio properties from multiple sources for cross-validation\n  const streamBitRate = parseInt(stream.bit_rate || '0', 10);\n  const tagBitRate = parseInt(tags.BPS || tags['BPS-eng'] || '0', 10);\n  const sampleRate = parseInt(stream.sample_rate || '0', 10);\n  const channels = parseInt(stream.channels || '0', 10);\n  \n  // Extract frame and byte counts from tags\n  const frameCount = parseInt(tags.NUMBER_OF_FRAMES || tags['NUMBER_OF_FRAMES-eng'] || '0', 10);\n  const byteCount = parseInt(tags.NUMBER_OF_BYTES || tags['NUMBER_OF_BYTES-eng'] || '0', 10);\n  \n  // Cross-reference with MediaInfo data if available\n  let mediaInfoAudio = null;\n  if (args.inputFileObj?.mediaInfo?.track) {\n    // Find corresponding audio track in MediaInfo (by stream order)\n    const audioTracks = args.inputFileObj.mediaInfo.track.filter(t => t['@type'] === 'Audio');\n    if (audioTracks[index]) {\n      mediaInfoAudio = audioTracks[index];\n    }\n  }\n  \n  // Get MediaInfo properties for cross-validation\n  let mediaInfoBitRate = 0;\n  let mediaInfoSampleRate = 0;\n  let mediaInfoChannels = 0;\n  let mediaInfoStreamSize = 0;\n  let mediaInfoFrameCount = 0;\n  \n  if (mediaInfoAudio) {\n    mediaInfoBitRate = parseInt(mediaInfoAudio.BitRate || '0', 10);\n    mediaInfoSampleRate = parseInt(mediaInfoAudio.SamplingRate || '0', 10);\n    mediaInfoChannels = parseInt(mediaInfoAudio.Channels || '0', 10);\n    mediaInfoStreamSize = parseInt(mediaInfoAudio.StreamSize || '0', 10);\n    mediaInfoFrameCount = parseInt(mediaInfoAudio.FrameCount || '0', 10);\n  }\n  \n  // Use the best available bitrate (prefer stream, then MediaInfo, then tags)\n  const bestBitRate = streamBitRate > 0 ? streamBitRate : \n                     mediaInfoBitRate > 0 ? mediaInfoBitRate : \n                     tagBitRate;\n  \n  // Use the best available sample rate\n  const bestSampleRate = sampleRate > 0 ? sampleRate : mediaInfoSampleRate;\n  \n  // Use the best available channel count\n  const bestChannels = channels > 0 ? channels : mediaInfoChannels;\n  \n  // Use the best available stream size (prefer MediaInfo, then tags)\n  const bestStreamSize = mediaInfoStreamSize > 0 ? mediaInfoStreamSize : byteCount;\n  \n  // Use the best available frame count (prefer MediaInfo, then tags)\n  const bestFrameCount = mediaInfoFrameCount > 0 ? mediaInfoFrameCount : frameCount;\n  \n  if (VERBOSE) {\n    args.jobLog(`    → Audio validation data:`);\n    args.jobLog(`      FFprobe: ${streamBitRate} bps, ${sampleRate} Hz, ${channels} ch, ${frameCount} frames, ${byteCount} bytes`);\n    if (mediaInfoAudio) {\n      args.jobLog(`      MediaInfo: ${mediaInfoBitRate} bps, ${mediaInfoSampleRate} Hz, ${mediaInfoChannels} ch, ${mediaInfoFrameCount} frames, ${mediaInfoStreamSize} bytes`);\n    }\n    args.jobLog(`      Best values: ${bestBitRate} bps, ${bestSampleRate} Hz, ${bestChannels} ch, ${bestFrameCount} frames, ${bestStreamSize} bytes`);\n  }\n  \n  // Check for missing essential stream properties first\n  if (!stream.codec_name || stream.codec_name.trim() === '') {\n    args.jobLog(`    → Validation FAILED: Audio stream missing codec information`);\n    return false;\n  }\n  \n  // Check for invalid channel count (must have at least 1 channel)\n  if (bestChannels === 0) {\n    args.jobLog(`    → Validation FAILED: Audio stream has 0 channels`);\n    return false;\n  }\n  \n  // Check for unreasonable channel counts (more than 32 channels is suspicious)\n  if (bestChannels > 32) {\n    args.jobLog(`    → Validation FAILED: Audio stream has unreasonable channel count (${bestChannels})`);\n    return false;\n  }\n  \n  // Check for invalid sample rates\n  if (bestSampleRate > 0 && (bestSampleRate < 8000 || bestSampleRate > 192000)) {\n    args.jobLog(`    → Validation FAILED: Audio stream has invalid sample rate (${bestSampleRate} Hz)`);\n    return false;\n  }\n  \n  // Check for completely empty streams (all indicators are zero)\n  if (bestFrameCount === 0 && bestStreamSize === 0 && bestBitRate === 0) {\n    args.jobLog(`    → Validation FAILED: Audio stream is completely empty (0 frames, 0 bytes, 0 bitrate)`);\n    return false;\n  }\n  \n  // Check for streams with zero duration AND zero frames (but be more lenient with cross-validation)\n  if (duration === 0 && bestFrameCount === 0 && bestStreamSize === 0) {\n    args.jobLog(`    → Validation FAILED: Audio stream has 0 duration, 0 frames, and 0 bytes`);\n    return false;\n  }\n  \n  // Check for suspiciously small audio streams (but only if we have reliable data)\n  if (bestStreamSize > 0 && bestStreamSize < 1000 && bestFrameCount === 0 && duration > 10) {\n    args.jobLog(`    → Validation FAILED: Audio stream too small (${bestStreamSize} bytes, 0 frames) for ${duration.toFixed(2)}s duration - likely corrupted`);\n    return false;\n  }\n  \n  // Validate bitrate reasonableness (if we have duration and size)\n  if (duration > 0 && bestStreamSize > 0) {\n    const calculatedBitRate = Math.round((bestStreamSize * 8) / duration);\n    const reportedBitRate = bestBitRate;\n    \n    // Allow for some variance in bitrate calculations (±50% tolerance)\n    if (reportedBitRate > 0 && calculatedBitRate > 0) {\n      const variance = Math.abs(calculatedBitRate - reportedBitRate) / reportedBitRate;\n      if (variance > 0.5 && reportedBitRate < 1000) {\n        if (VERBOSE) {\n          args.jobLog(`    → Validation WARNING: Large bitrate variance (calculated: ${calculatedBitRate}, reported: ${reportedBitRate})`);\n        }\n        // Don't fail on this alone, just warn\n      }\n    }\n  }\n  \n  // Additional validation for specific codecs\n  if (['mp3', 'aac', 'ac3', 'eac3', 'dts', 'flac', 'pcm'].includes(codec.toLowerCase())) {\n    // For common audio codecs, we expect reasonable bitrates\n    if (bestBitRate > 0 && bestBitRate < 32000 && duration > 60) {\n      if (VERBOSE) {\n        args.jobLog(`    → Validation WARNING: Low bitrate (${bestBitRate} bps) for ${codec} codec`);\n      }\n      // Don't fail on this alone for common codecs, just warn\n    }\n  }\n  \n  // CRITICAL: Enhanced validation using FFprobe to detect muxing-level corruption\n  // This catches streams that will cause \"Error submitting a packet to the muxer\" errors\n  try {\n    if (VERBOSE) {\n      args.jobLog(`    → Running deep FFprobe validation for audio stream ${index}...`);\n    }\n    \n    // Test the stream by attempting to read a few packets\n    const { execFileSync } = require('child_process');\n    const deepProbeResult = execFileSync(ffprobePath, [\n      '-v', 'error',\n      '-select_streams', `a:${index}`,\n      '-show_entries', 'packet=pts,dts,size,flags',\n      '-read_intervals', '%+#5',  // Read only first 5 packets for speed\n      '-of', 'csv=p=0',\n      sourceFile\n    ], { encoding: 'utf8', timeout: 10000 });\n    \n    const packets = deepProbeResult.trim().split('\\n').filter(line => line.trim());\n    if (VERBOSE) {\n      args.jobLog(`    → Deep probe found ${packets.length} packets in first 5 frames`);\n    }\n    \n    if (packets.length === 0) {\n      args.jobLog(`    → Validation FAILED: No audio packets found - stream is empty or corrupted`);\n      return false;\n    }\n    \n    // Analyze packet data for corruption indicators\n    let corruptedPackets = 0;\n    let validPackets = 0;\n    \n    packets.forEach((packet, packetIndex) => {\n      const parts = packet.split(',');\n      if (parts.length >= 3) {\n        const pts = parts[0] || 'N/A';\n        const dts = parts[1] || 'N/A';\n        const size = parseInt(parts[2] || '0', 10);\n        \n        // Check for invalid packet sizes\n        if (size === 0) {\n          corruptedPackets++;\n          if (VERBOSE) {\n            args.jobLog(`    → Packet ${packetIndex}: size=0 (corrupted)`);\n          }\n        } else if (size > 0 && size < 1000000) { // Reasonable size limit\n          validPackets++;\n        } else {\n          corruptedPackets++;\n          if (VERBOSE) {\n            args.jobLog(`    → Packet ${packetIndex}: size=${size} (suspicious)`);\n          }\n        }\n        \n        // Check for invalid timestamps (both PTS and DTS are N/A)\n        if (pts === 'N/A' && dts === 'N/A') {\n          if (VERBOSE) {\n            args.jobLog(`    → Packet ${packetIndex}: missing timestamps (potential corruption)`);\n          }\n        }\n      }\n    });\n    \n    // If more than 50% of packets are corrupted, fail validation\n    if (corruptedPackets > validPackets) {\n      args.jobLog(`    → Validation FAILED: ${corruptedPackets}/${packets.length} packets corrupted - stream will cause muxing errors`);\n      return false;\n    }\n    \n    if (VERBOSE) {\n      args.jobLog(`    → Deep probe validation: ${validPackets} valid, ${corruptedPackets} corrupted packets`);\n    }\n    \n  } catch (deepProbeError) {\n    if (VERBOSE) {\n      args.jobLog(`    → Deep probe validation failed: ${deepProbeError.message}`);\n    }\n    \n    // If we can't probe the stream at packet level, it's likely corrupted\n    // But only fail if we also have other indicators of corruption\n    if (bestFrameCount === 0 || bestStreamSize === 0) {\n      args.jobLog(`    → Validation FAILED: Cannot probe packets AND stream has empty indicators - likely corrupted`);\n      return false;\n    } else {\n      if (VERBOSE) {\n        args.jobLog(`    → Deep probe failed but stream has valid indicators - allowing with warning`);\n      }\n    }\n  }\n  \n  // CRITICAL: Additional muxing compatibility test for problematic codecs\n  if (['eac3', 'ac3', 'dts', 'truehd'].includes(codec.toLowerCase())) {\n    try {\n      if (VERBOSE) {\n        args.jobLog(`    → Testing muxing compatibility for ${codec} codec...`);\n      }\n      \n      // Test if the stream can be copied without errors by doing a very short test mux\n      const path = require('path');\n      const fs = require('fs');\n      const testOutputFile = path.join(path.dirname(sourceFile), `test_audio_${index}_${Date.now()}.mkv`);\n      \n      const { execFileSync } = require('child_process');\n      const testResult = execFileSync(ffmpegPath, [\n        '-v', 'error',\n        '-i', sourceFile,\n        '-map', `0:a:${index}`,\n        '-c:a', 'copy',\n        '-t', '1',  // Only process 1 second\n        '-f', 'matroska',\n        '-y', testOutputFile\n      ], { encoding: 'utf8', timeout: 15000 });\n      \n      // Clean up test file\n      if (fs.existsSync(testOutputFile)) {\n        fs.unlinkSync(testOutputFile);\n      }\n      \n      if (VERBOSE) {\n        args.jobLog(`    → Muxing compatibility test PASSED for ${codec}`);\n      }\n      \n    } catch (muxTestError) {\n      if (VERBOSE) {\n        args.jobLog(`    → Muxing compatibility test FAILED for ${codec}: ${muxTestError.message}`);\n      }\n      \n      // Check if the error is related to muxing issues that would cause our main problem\n      const errorOutput =

[Report truncated due to size limit]
